<svg width="21" height="20" viewBox="0 0 21 20" fill="none" xmlns="http://www.w3.org/2000/svg">
<mask id="mask0_0_165" style="mask-type:luminance" maskUnits="userSpaceOnUse" x="3" y="3" width="15" height="15">
<path fill-rule="evenodd" clip-rule="evenodd" d="M3.5 3.7674H17.8964V17.4806H3.5V3.7674Z" fill="white"/>
</mask>
<g mask="url(#mask0_0_165)">
<path fill-rule="evenodd" clip-rule="evenodd" d="M4.7839 10.1814C5.76979 13.2488 9.66484 15.729 10.7 16.3429C11.7386 15.7227 15.6618 13.2151 16.616 10.1843C17.2426 8.22513 16.661 5.74352 14.3503 4.99883C13.2308 4.63949 11.9249 4.85819 11.0234 5.55577C10.835 5.70063 10.5734 5.70344 10.3835 5.55999C9.42857 4.84202 8.18108 4.63176 7.044 4.99883C4.73679 5.74282 4.15734 8.22443 4.7839 10.1814ZM10.6994 17.48C10.6122 17.48 10.5257 17.4589 10.4469 17.416C10.2268 17.2957 5.0421 14.4379 3.77844 10.5042C3.77774 10.5042 3.77774 10.5035 3.77774 10.5035C2.98452 8.02677 3.86775 4.91439 6.71924 3.9953C8.05814 3.56213 9.51729 3.7527 10.6973 4.49739C11.8407 3.7745 13.3596 3.57479 14.6718 3.9953C17.5261 4.9158 18.4121 8.02748 17.6196 10.5035C16.3967 14.3922 11.174 17.2929 10.9525 17.4146C10.8738 17.4582 10.7866 17.48 10.6994 17.48Z" fill="#B8B8B8"/>
</g>
<path fill-rule="evenodd" clip-rule="evenodd" d="M14.8584 9.12954C14.5862 9.12954 14.3556 8.92069 14.3331 8.64503C14.2867 8.067 13.8999 7.57898 13.3493 7.40106C13.0715 7.31105 12.9196 7.0136 13.009 6.73724C13.0997 6.46018 13.3943 6.30969 13.6728 6.39689C14.6312 6.707 15.3028 7.55577 15.3851 8.55924C15.4083 8.84967 15.1924 9.10423 14.902 9.12743C14.8872 9.12884 14.8731 9.12954 14.8584 9.12954Z" fill="#B8B8B8"/>
</svg>
