<svg width="24" height="27" viewBox="0 0 24 27" fill="none" xmlns="http://www.w3.org/2000/svg">
<path d="M20 23C20.988 23 21.945 23.351 22.671 24.009C22.977 24.285 23.381 24.454 23.813 24.492L24 24.5V26.5L23.772 26.494C22.8669 26.449 22.0046 26.095 21.329 25.491C20.9618 25.1688 20.4884 24.9939 20 25C19.498 25 19.022 25.175 18.672 25.491C17.9375 26.1461 16.9862 26.5056 16.002 26.5C15.0171 26.5061 14.065 26.1466 13.33 25.491C12.9626 25.1686 12.4888 24.9937 12 25C11.497 25 11.02 25.175 10.671 25.491C9.93646 26.146 8.98517 26.5055 8.001 26.5C7.01627 26.5063 6.0642 26.1471 5.329 25.492C4.96197 25.1695 4.48856 24.9942 4 25C3.497 25 3.02 25.175 2.67 25.491C1.99468 26.0948 1.13276 26.4488 0.228 26.494L0 26.5V24.5L0.187 24.492C0.610026 24.4593 1.0109 24.2898 1.329 24.009C2.06364 23.3535 3.01543 22.9939 4 23C4.988 23 5.945 23.352 6.671 24.009C7.021 24.325 7.497 24.499 8.001 24.5C8.503 24.5 8.98 24.325 9.329 24.008C10.0637 23.3528 11.0155 22.9936 12 23C12.988 23 13.945 23.351 14.671 24.009C15.021 24.325 15.497 24.499 16.001 24.5C16.503 24.5 16.98 24.325 17.329 24.009C18.0634 23.3537 19.0148 22.9942 19.999 23H20ZM20 18C20.988 18 21.945 18.351 22.671 19.009C22.977 19.285 23.381 19.454 23.813 19.492L24 19.5V21.5L23.772 21.494C22.8669 21.449 22.0046 21.095 21.329 20.491C20.9618 20.1688 20.4884 19.9939 20 20C19.498 20 19.022 20.175 18.672 20.491C17.9375 21.1461 16.9862 21.5056 16.002 21.5C15.0171 21.5061 14.065 21.1466 13.33 20.491C12.9626 20.1686 12.4888 19.9937 12 20C11.497 20 11.02 20.175 10.671 20.491C9.93646 21.146 8.98517 21.5055 8.001 21.5C7.01627 21.5063 6.0642 21.1471 5.329 20.492C4.96197 20.1695 4.48856 19.9942 4 20C3.497 20 3.02 20.175 2.67 20.491C1.99468 21.0948 1.13276 21.4488 0.228 21.494L0 21.5V19.5L0.187 19.492C0.610026 19.4593 1.0109 19.2898 1.329 19.009C2.06364 18.3535 3.01543 17.9939 4 18C4.988 18 5.945 18.352 6.671 19.009C7.021 19.325 7.497 19.499 8.001 19.5C8.503 19.5 8.98 19.325 9.329 19.008C10.0637 18.3528 11.0155 17.9936 12 18C12.988 18 13.945 18.351 14.671 19.009C15.021 19.325 15.497 19.499 16.001 19.5C16.503 19.5 16.98 19.325 17.329 19.009C18.0634 18.3537 19.0148 17.9942 19.999 18H20ZM16 -2.93764e-06C17.0262 -3.7404e-06 18.0132 0.394432 18.7568 1.10172C19.5004 1.80901 19.9437 2.77504 19.995 3.8L20 4V6H24V8H20V13C20.912 13 21.798 13.3 22.5 13.862L22.671 14.009C22.977 14.285 23.381 14.454 23.813 14.492L24 14.5V16.5L23.772 16.494C22.8669 16.449 22.0046 16.095 21.329 15.491C20.9618 15.1688 20.4884 14.994 20 15C19.498 15 19.022 15.175 18.672 15.491C17.9375 16.1461 16.9862 16.5056 16.002 16.5C15.0171 16.5061 14.065 16.1466 13.33 15.491C12.9626 15.1686 12.4888 14.9937 12 15C11.497 15 11.02 15.175 10.671 15.491C9.93646 16.146 8.98517 16.5055 8.001 16.5C7.01627 16.5063 6.0642 16.1471 5.329 15.492C4.96197 15.1695 4.48856 14.9942 4 15C3.497 15 3.02 15.175 2.67 15.491C1.99468 16.0948 1.13276 16.4488 0.228 16.494L0 16.5V14.5L0.187 14.492C0.610026 14.4593 1.0109 14.2898 1.329 14.009C2.06364 13.3535 3.01543 12.9939 4 13C4.988 13 5.945 13.352 6.671 14.009C7.021 14.325 7.497 14.499 8.001 14.5C8.503 14.5 8.98 14.325 9.329 14.008C10.0048 13.4039 10.8676 13.0501 11.773 13.006L12 13V8H0V6H12V4C12.0023 3.48101 11.8028 2.98145 11.4436 2.60684C11.0844 2.23224 10.5937 2.01193 10.0751 1.99246C9.55644 1.97298 9.05056 2.15587 8.66428 2.50249C8.27801 2.84911 8.0416 3.3323 8.005 3.85L8 4H6C6.00015 3.18758 6.24768 2.39446 6.70966 1.72618C7.17164 1.05789 7.82616 0.546121 8.58614 0.258958C9.34612 -0.0282049 10.1755 -0.0771459 10.964 0.118646C11.7525 0.314439 12.4626 0.745681 13 1.355C13.3747 0.928479 13.8362 0.586941 14.3535 0.353254C14.8709 0.119567 15.4323 -0.000874044 16 -2.93764e-06ZM14 13.523C14.16 13.614 14.313 13.717 14.459 13.83L14.671 14.009C15.021 14.325 15.497 14.499 16.001 14.5C16.44 14.5 16.861 14.366 17.192 14.12L17.329 14.009C17.535 13.822 17.76 13.659 17.999 13.523V8H13.999L14 13.523ZM16 2C15.4954 1.99984 15.0094 2.1904 14.6395 2.53349C14.2695 2.87658 14.0428 3.34684 14.005 3.85L14 4V6H18V4C18 3.46956 17.7893 2.96086 17.4142 2.58578C17.0391 2.21071 16.5304 2 16 2Z" fill="#B8B8B8"/>
</svg>
