<svg width="21" height="20" viewBox="0 0 21 20" fill="none" xmlns="http://www.w3.org/2000/svg">
<path d="M11.8867 4.18863V6.00325" stroke="#B8B8B8" stroke-width="1.34971" stroke-linecap="round" stroke-linejoin="round"/>
<path d="M11.8867 14.3186V15.8363" stroke="#B8B8B8" stroke-width="1.34971" stroke-linecap="round" stroke-linejoin="round"/>
<path d="M11.8867 11.7412V8.12625" stroke="#B8B8B8" stroke-width="1.34971" stroke-linecap="round" stroke-linejoin="round"/>
<path fill-rule="evenodd" clip-rule="evenodd" d="M15.5272 15.9986C16.8935 15.9986 18.0001 14.9057 18.0001 13.5564V11.6125C17.0961 11.6125 16.368 10.8934 16.368 10.0006C16.368 9.1078 17.0961 8.38798 18.0001 8.38798L17.9993 6.44324C17.9993 5.09397 16.8919 4.00111 15.5265 4.00111H5.47696C4.11148 4.00111 3.00408 5.09397 3.00408 6.44324L3.0033 8.45131C3.90736 8.45131 4.63546 9.1078 4.63546 10.0006C4.63546 10.8934 3.90736 11.6125 3.0033 11.6125V13.5564C3.0033 14.9057 4.10991 15.9986 5.47618 15.9986H15.5272Z" stroke="#B8B8B8" stroke-width="1.34971" stroke-linecap="round" stroke-linejoin="round"/>
</svg>
